<svg width="57" height="40" viewBox="0 0 57 40" fill="none" xmlns="http://www.w3.org/2000/svg">
<path fill-rule="evenodd" clip-rule="evenodd" d="M55.8069 1.1712C56.5708 1.92134 57 2.93861 57 3.99932C57 5.06002 56.5708 6.07729 55.8069 6.82744L23.2063 38.8288C22.4421 39.5787 21.4058 40 20.3253 40C19.2447 40 18.2084 39.5787 17.4442 38.8288L1.14392 22.8281C0.401613 22.0737 -0.00913066 21.0632 0.000154048 20.0144C0.00943876 18.9656 0.438009 17.9623 1.19356 17.2206C1.94911 16.4789 2.97119 16.0582 4.03966 16.0491C5.10813 16.04 6.1375 16.4432 6.90606 17.1719L20.3253 30.3444L50.0447 1.1712C50.8089 0.42128 51.8452 0 52.9258 0C54.0064 0 55.0427 0.42128 55.8069 1.1712Z" fill="#F8F7FF"/>
</svg>
