<svg width="47" height="46" viewBox="0 0 47 46" fill="none" xmlns="http://www.w3.org/2000/svg">
<path fill-rule="evenodd" clip-rule="evenodd" d="M1.14559 1.17027C1.87934 0.451633 2.87438 0.0479236 3.91189 0.0479236C4.94941 0.0479236 5.94445 0.451633 6.67819 1.17027L23.4755 17.6268L40.2729 1.17027C40.6338 0.80415 41.0656 0.512117 41.5429 0.311216C42.0203 0.110315 42.5337 0.0045677 43.0533 0.000144735C43.5728 -0.00427823 44.088 0.0927108 44.5689 0.285454C45.0497 0.478198 45.4866 0.762835 45.854 1.12276C46.2214 1.48268 46.5119 1.91068 46.7086 2.38178C46.9054 2.85288 47.0044 3.35766 46.9999 3.86664C46.9953 4.37563 46.8874 4.87864 46.6823 5.34632C46.4773 5.814 46.1792 6.23699 45.8055 6.5906L29.0081 23.0471L45.8055 39.5036C46.5182 40.2266 46.9126 41.1949 46.9037 42.2C46.8948 43.2051 46.4833 44.1665 45.7578 44.8772C45.0324 45.588 44.051 45.9911 43.0251 45.9999C41.9992 46.0086 41.0108 45.6222 40.2729 44.9239L23.4755 28.4674L6.67819 44.9239C5.94024 45.6222 4.95188 46.0086 3.92597 45.9999C2.90007 45.9911 1.91871 45.588 1.19326 44.8772C0.467805 44.1665 0.0563064 43.2051 0.0473915 42.2C0.0384767 41.1949 0.432859 40.2266 1.14559 39.5036L17.9429 23.0471L1.14559 6.5906C0.412071 5.87175 0 4.8969 0 3.88044C0 2.86398 0.412071 1.88913 1.14559 1.17027Z" fill="#F8F7FF"/>
</svg>
