<svg width="398" height="183" viewBox="0 0 398 183" fill="none" xmlns="http://www.w3.org/2000/svg">
<path d="M69.9853 90.144C69.9853 137.829 63.9344 176.484 55.5318 176.484C47.1292 176.484 40.3176 137.829 40.3176 90.144C40.3176 42.4595 47.1292 3.80353 55.5318 3.80353C63.9344 3.80353 69.9853 42.4595 69.9853 90.144Z" fill="#FF8181"/>
<path d="M93.1868 90.144C93.1868 135.308 90.1389 171.92 82.1565 171.92C74.174 171.92 71.887 133.786 71.887 88.6226C71.887 43.4588 74.174 8.3678 82.1565 8.3678C90.1389 8.3678 93.1868 44.9803 93.1868 90.144Z" fill="#FF8181"/>
<path d="M113.346 90.144C113.346 130.686 112.881 163.552 105.739 163.552C98.5964 163.552 96.6101 130.686 96.6101 90.144C96.6101 49.6017 98.5964 16.7356 105.739 16.7356C112.881 16.7356 113.346 49.6017 113.346 90.144Z" fill="#FF8181"/>
<path d="M130.462 90.144C130.462 119.763 129.628 143.774 124.376 143.774C119.124 143.774 119.812 119.763 119.812 90.144C119.812 60.525 119.124 36.514 124.376 36.514C129.628 36.514 130.462 60.525 130.462 90.144Z" fill="#FF8181"/>
<path d="M143.774 90.144C143.774 105.059 143.358 117.149 140.74 117.149C138.121 117.149 138.464 105.059 138.464 90.144C138.464 75.2295 138.121 63.1389 140.74 63.1389C143.358 63.1389 143.774 75.2295 143.774 90.144Z" fill="#FF8181"/>
<path fill-rule="evenodd" clip-rule="evenodd" d="M13 0C5.8203 0 0 5.82029 0 13V169.57C0 176.75 5.8203 182.57 13 182.57H22.3851C22.3956 182.57 22.4061 182.57 22.4165 182.57C22.4293 182.57 22.4422 182.57 22.455 182.57C33.176 182.57 41.8672 141.7 41.8672 91.2851C41.8672 40.8697 33.176 1.39741e-05 22.455 1.39741e-05C22.4427 1.39741e-05 22.4303 6.80879e-05 22.418 0.000176272C22.4071 5.8857e-05 22.3961 0 22.3851 0H13Z" fill="#FF8181"/>
<path d="M153.32 110V80.462L152.24 75.062L153.32 71.768H169.412C172.004 71.768 174.488 72.02 176.864 72.524C179.276 72.992 181.418 73.892 183.29 75.224C185.198 76.556 186.692 78.464 187.772 80.948C188.888 83.432 189.446 86.654 189.446 90.614C189.446 94.574 188.888 97.832 187.772 100.388C186.656 102.908 185.144 104.87 183.236 106.274C181.328 107.678 179.168 108.65 176.756 109.19C174.38 109.73 171.932 110 169.412 110H153.32ZM163.148 101.36H169.412C172.58 101.36 175.01 100.532 176.702 98.876C178.394 97.184 179.24 94.43 179.24 90.614C179.24 86.798 178.376 84.152 176.648 82.676C174.956 81.164 172.544 80.408 169.412 80.408H163.148V101.36ZM201.895 110L193.255 80.354L191.635 75.008V71.768H201.895L208.645 99.632H209.725L214.855 71.768H229.057L233.269 92.774L234.133 99.632H235.213L241.909 71.768H252.061V75.008L250.441 80.354L241.909 110H227.923L222.361 81.812H221.227L220.309 88.346L215.881 110H201.895ZM256.93 110V80.408L256.39 75.008L256.93 71.768H266.704V110H256.93ZM274.24 110V80.462L273.16 75.062L274.24 71.822H282.934L293.842 86.51L296.434 90.992H296.974V71.822H307.18V75.062L306.64 80.462V110H298.162L284.608 90.992H284.068V94.232L284.608 110H274.24ZM313.174 110L311.5 106.76L331.048 80.354H313.174V71.768H344.224V78.14L327.43 101.414H329.104L344.332 100.334V110H313.174Z" fill="#FF8181"/>
<path d="M363.98 75.17V52.004H370.892C373.052 52.004 374.78 52.238 376.076 52.706C377.408 53.174 378.362 53.912 378.938 54.92C379.55 55.892 379.856 57.152 379.856 58.7C379.856 60.104 379.46 61.31 378.668 62.318C377.876 63.326 376.688 64.136 375.104 64.748L381.584 75.17H377.264L371.702 65.72H367.706V75.17H363.98ZM367.706 62.858H370.892C372.584 62.858 373.844 62.516 374.672 61.832C375.536 61.148 375.968 60.14 375.968 58.808C375.968 57.296 375.5 56.288 374.564 55.784C373.664 55.244 372.368 54.974 370.676 54.974H367.706V62.858ZM371 85.97C367.94 85.97 365.06 85.394 362.36 84.242C359.66 83.09 357.284 81.506 355.232 79.49C353.216 77.438 351.632 75.062 350.48 72.362C349.328 69.662 348.752 66.782 348.752 63.722C348.752 60.626 349.328 57.746 350.48 55.082C351.632 52.382 353.216 50.024 355.232 48.008C357.284 45.956 359.66 44.354 362.36 43.202C365.06 42.05 367.94 41.474 371 41.474C374.096 41.474 376.976 42.05 379.64 43.202C382.34 44.354 384.698 45.956 386.714 48.008C388.766 50.024 390.368 52.382 391.52 55.082C392.672 57.746 393.248 60.626 393.248 63.722C393.248 66.782 392.672 69.662 391.52 72.362C390.368 75.062 388.766 77.438 386.714 79.49C384.698 81.506 382.34 83.09 379.64 84.242C376.976 85.394 374.096 85.97 371 85.97ZM371 82.946C373.664 82.946 376.148 82.46 378.452 81.488C380.792 80.48 382.844 79.094 384.608 77.33C386.372 75.566 387.74 73.532 388.712 71.228C389.72 68.888 390.224 66.386 390.224 63.722C390.224 61.058 389.72 58.574 388.712 56.27C387.74 53.93 386.372 51.878 384.608 50.114C382.844 48.35 380.792 46.982 378.452 46.01C376.148 45.002 373.664 44.498 371 44.498C368.336 44.498 365.834 45.002 363.494 46.01C361.19 46.982 359.156 48.35 357.392 50.114C355.628 51.878 354.242 53.93 353.234 56.27C352.262 58.574 351.776 61.058 351.776 63.722C351.776 66.386 352.262 68.888 353.234 71.228C354.242 73.532 355.628 75.566 357.392 77.33C359.156 79.094 361.19 80.48 363.494 81.488C365.834 82.46 368.336 82.946 371 82.946Z" fill="#FF8181"/>
</svg>
