<svg width="144" height="183" viewBox="0 0 144 183" fill="none" xmlns="http://www.w3.org/2000/svg">
<path d="M69.9853 90.144C69.9853 137.829 63.9344 176.484 55.5318 176.484C47.1292 176.484 40.3176 137.829 40.3176 90.144C40.3176 42.4595 47.1292 3.80353 55.5318 3.80353C63.9344 3.80353 69.9853 42.4595 69.9853 90.144Z" fill="#FF8181"/>
<path d="M93.1868 90.144C93.1868 135.308 90.1389 171.92 82.1565 171.92C74.174 171.92 71.887 133.786 71.887 88.6226C71.887 43.4588 74.174 8.3678 82.1565 8.3678C90.1389 8.3678 93.1868 44.9803 93.1868 90.144Z" fill="#FF8181"/>
<path d="M113.346 90.144C113.346 130.686 112.881 163.552 105.739 163.552C98.5964 163.552 96.6101 130.686 96.6101 90.144C96.6101 49.6017 98.5964 16.7356 105.739 16.7356C112.881 16.7356 113.346 49.6017 113.346 90.144Z" fill="#FF8181"/>
<path d="M130.462 90.144C130.462 119.763 129.628 143.774 124.376 143.774C119.124 143.774 119.812 119.763 119.812 90.144C119.812 60.525 119.124 36.514 124.376 36.514C129.628 36.514 130.462 60.525 130.462 90.144Z" fill="#FF8181"/>
<path d="M143.774 90.144C143.774 105.059 143.358 117.149 140.74 117.149C138.121 117.149 138.464 105.059 138.464 90.144C138.464 75.2295 138.121 63.1389 140.74 63.1389C143.358 63.1389 143.774 75.2295 143.774 90.144Z" fill="#FF8181"/>
<path fill-rule="evenodd" clip-rule="evenodd" d="M13 0C5.8203 0 0 5.82029 0 13V169.57C0 176.75 5.8203 182.57 13 182.57H22.3851C22.3956 182.57 22.4061 182.57 22.4165 182.57C22.4293 182.57 22.4422 182.57 22.455 182.57C33.176 182.57 41.8672 141.7 41.8672 91.2851C41.8672 40.8697 33.176 1.39741e-05 22.455 1.39741e-05C22.4427 1.39741e-05 22.4303 6.80879e-05 22.418 0.000176272C22.4071 5.8857e-05 22.3961 0 22.3851 0H13Z" fill="#FF8181"/>
</svg>
